<svg width="52" height="52" viewBox="0 0 52 52" fill="none" xmlns="http://www.w3.org/2000/svg">
<path d="M39 35.7504C39.2155 35.7504 39.4221 35.6648 39.5745 35.5124C39.7269 35.36 39.8125 35.1534 39.8125 34.9379V31.6879C39.8116 31.5377 39.7687 31.3909 39.6888 31.2638C39.6088 31.1367 39.4949 31.0346 39.3599 30.9688L26.3599 24.4607C26.2472 24.4043 26.1228 24.375 25.9967 24.375C25.8707 24.375 25.7463 24.4043 25.6336 24.4607L12.6336 30.9688C12.4998 31.0355 12.3872 31.138 12.3085 31.265C12.2297 31.392 12.1878 31.5384 12.1875 31.6879V34.9379C12.1875 35.1534 12.2731 35.36 12.4255 35.5124C12.5778 35.6648 12.7845 35.7504 13 35.7504H13.8125V45.5004H13C12.7845 45.5004 12.5778 45.586 12.4255 45.7383C12.2731 45.8907 12.1875 46.0974 12.1875 46.3129V49.5629C12.1875 49.7784 12.2731 49.985 12.4255 50.1374C12.5778 50.2898 12.7845 50.3754 13 50.3754H39C39.2155 50.3754 39.4221 50.2898 39.5745 50.1374C39.7269 49.985 39.8125 49.7784 39.8125 49.5629V46.3129C39.8125 46.0974 39.7269 45.8907 39.5745 45.7383C39.4221 45.586 39.2155 45.5004 39 45.5004H38.1875V35.7504H39ZM26 26.0963L35.5582 30.8754H16.4417L26 26.0963ZM38.1875 48.7504H13.8125V47.1254H38.1875V48.7504ZM15.4375 45.5004V35.7504H17.0625V45.5004H15.4375ZM18.6875 45.5004V35.7504H20.3125V45.5004H18.6875ZM21.9375 45.5004V35.7504H23.5625V45.5004H21.9375ZM25.1875 45.5004V35.7504H26.8125V45.5004H25.1875ZM28.4375 45.5004V35.7504H30.0625V45.5004H28.4375ZM31.6875 45.5004V35.7504H33.3125V45.5004H31.6875ZM34.9375 45.5004V35.7504H36.5625V45.5004H34.9375ZM13.8125 34.1254V32.5004H38.1875V34.1254H13.8125Z" fill="white"/>
<path d="M5.92539 23.8004L1.86289 27.8629C1.74929 27.9765 1.67194 28.1213 1.6406 28.2789C1.60927 28.4365 1.62536 28.5998 1.68684 28.7482C1.74832 28.8967 1.85243 29.0236 1.98602 29.1128C2.1196 29.2021 2.27665 29.2498 2.43733 29.2498H4.06233V42.2498C4.06233 42.4653 4.14793 42.672 4.3003 42.8243C4.45268 42.9767 4.65934 43.0623 4.87483 43.0623H11.3748C11.5903 43.0623 11.797 42.9767 11.9494 42.8243C12.1017 42.672 12.1873 42.4653 12.1873 42.2498V38.9998C12.1873 38.7843 12.1017 38.5777 11.9494 38.4253C11.797 38.2729 11.5903 38.1873 11.3748 38.1873H8.93733V29.2498H10.5623C10.723 29.2498 10.8801 29.2021 11.0136 29.1128C11.1472 29.0236 11.2513 28.8967 11.3128 28.7482C11.3743 28.5998 11.3904 28.4365 11.3591 28.2789C11.3277 28.1213 11.2504 27.9765 11.1368 27.8629L7.07426 23.8004C6.9219 23.6481 6.71527 23.5625 6.49983 23.5625C6.28438 23.5625 6.07776 23.6481 5.92539 23.8004ZM8.60095 27.6248H8.12483C7.90934 27.6248 7.70268 27.7104 7.5503 27.8628C7.39793 28.0152 7.31233 28.2218 7.31233 28.4373V38.9998C7.31233 39.2153 7.39793 39.422 7.5503 39.5743C7.70268 39.7267 7.90934 39.8123 8.12483 39.8123H10.5623V41.4373H5.68733V28.4373C5.68733 28.2218 5.60172 28.0152 5.44935 27.8628C5.29698 27.7104 5.09031 27.6248 4.87483 27.6248H4.3987L6.49983 25.5237L8.60095 27.6248Z" fill="white"/>
<path d="M40.625 43.0623H47.125C47.3405 43.0623 47.5471 42.9767 47.6995 42.8243C47.8519 42.672 47.9375 42.4653 47.9375 42.2498V29.2498H49.5625C49.7232 29.2498 49.8802 29.2021 50.0138 29.1128C50.1474 29.0236 50.2515 28.8967 50.313 28.7482C50.3745 28.5998 50.3906 28.4365 50.3592 28.2789C50.3279 28.1213 50.2505 27.9765 50.1369 27.8629L46.0744 23.8004C45.9221 23.6481 45.7154 23.5625 45.5 23.5625C45.2846 23.5625 45.0779 23.6481 44.9256 23.8004L40.8631 27.8629C40.7495 27.9765 40.6721 28.1213 40.6408 28.2789C40.6094 28.4365 40.6255 28.5998 40.687 28.7482C40.7485 28.8967 40.8526 29.0236 40.9862 29.1128C41.1198 29.2021 41.2768 29.2498 41.4375 29.2498H43.0625V38.1873H40.625C40.4095 38.1873 40.2028 38.2729 40.0505 38.4253C39.8981 38.5777 39.8125 38.7843 39.8125 38.9998V42.2498C39.8125 42.4653 39.8981 42.672 40.0505 42.8243C40.2028 42.9767 40.4095 43.0623 40.625 43.0623ZM41.4375 39.8123H43.875C44.0905 39.8123 44.2972 39.7267 44.4495 39.5743C44.6019 39.422 44.6875 39.2153 44.6875 38.9998V28.4373C44.6875 28.2218 44.6019 28.0152 44.4495 27.8628C44.2972 27.7104 44.0905 27.6248 43.875 27.6248H43.3989L45.5 25.5237L47.6011 27.6248H47.125C46.9095 27.6248 46.7028 27.7104 46.5505 27.8628C46.3981 28.0152 46.3125 28.2218 46.3125 28.4373V41.4373H41.4375V39.8123Z" fill="white"/>
<path d="M6.5 1.625V21.125H9.75V22.75H43.875V4.875H42.25V1.625H6.5ZM9.75 19.5H8.125V3.25H40.625V4.875H9.75V19.5ZM42.25 21.125H11.375V6.5H42.25V21.125Z" fill="white"/>
<path d="M15.4375 18.6875V19.5H38.1875V18.6875C38.1875 18.2565 38.3587 17.8432 38.6634 17.5385C38.9682 17.2337 39.3815 17.0625 39.8125 17.0625H40.625V10.5625H39.8125C39.3815 10.5625 38.9682 10.3913 38.6634 10.0865C38.3587 9.7818 38.1875 9.36848 38.1875 8.9375V8.125H15.4375V8.9375C15.4375 9.36848 15.2663 9.7818 14.9615 10.0865C14.6568 10.3913 14.2435 10.5625 13.8125 10.5625H13V17.0625H13.8125C14.2435 17.0625 14.6568 17.2337 14.9615 17.5385C15.2663 17.8432 15.4375 18.2565 15.4375 18.6875ZM14.625 12.0843C15.1867 11.9381 15.6992 11.6447 16.1097 11.2344C16.5202 10.8241 16.8137 10.3116 16.9601 9.75H36.6649C36.8112 10.3116 37.1048 10.8241 37.5153 11.2344C37.9258 11.6447 38.4383 11.9381 39 12.0843V15.5407C38.4383 15.6869 37.9258 15.9803 37.5153 16.3906C37.1048 16.8009 36.8112 17.3134 36.6649 17.875H16.9601C16.8137 17.3134 16.5202 16.8009 16.1097 16.3906C15.6992 15.9803 15.1867 15.6869 14.625 15.5407V12.0843Z" fill="white"/>
<path d="M18.6875 16.25C19.1696 16.25 19.6409 16.107 20.0417 15.8392C20.4425 15.5714 20.755 15.1907 20.9395 14.7453C21.1239 14.2999 21.1722 13.8098 21.0782 13.337C20.9841 12.8641 20.752 12.4298 20.4111 12.0889C20.0702 11.748 19.6359 11.5159 19.163 11.4218C18.6902 11.3278 18.2001 11.3761 17.7547 11.5605C17.3093 11.745 16.9286 12.0575 16.6608 12.4583C16.393 12.8591 16.25 13.3304 16.25 13.8125C16.25 14.459 16.5068 15.079 16.9639 15.5361C17.421 15.9932 18.041 16.25 18.6875 16.25ZM18.6875 13C18.8482 13 19.0053 13.0477 19.1389 13.1369C19.2725 13.2262 19.3767 13.3531 19.4382 13.5016C19.4996 13.65 19.5157 13.8134 19.4844 13.971C19.453 14.1286 19.3757 14.2734 19.262 14.387C19.1484 14.5007 19.0036 14.578 18.846 14.6094C18.6884 14.6407 18.525 14.6247 18.3766 14.5632C18.2281 14.5017 18.1012 14.3975 18.0119 14.2639C17.9227 14.1303 17.875 13.9732 17.875 13.8125C17.875 13.597 17.9606 13.3904 18.113 13.238C18.2653 13.0856 18.472 13 18.6875 13Z" fill="white"/>
<path d="M34.9375 16.25C35.4196 16.25 35.8909 16.107 36.2917 15.8392C36.6925 15.5714 37.005 15.1907 37.1895 14.7453C37.3739 14.2999 37.4222 13.8098 37.3282 13.337C37.2341 12.8641 37.002 12.4298 36.6611 12.0889C36.3202 11.748 35.8859 11.5159 35.413 11.4218C34.9402 11.3278 34.4501 11.3761 34.0047 11.5605C33.5593 11.745 33.1786 12.0575 32.9108 12.4583C32.643 12.8591 32.5 13.3304 32.5 13.8125C32.5 14.459 32.7568 15.079 33.2139 15.5361C33.671 15.9932 34.291 16.25 34.9375 16.25ZM34.9375 13C35.0982 13 35.2553 13.0477 35.3889 13.1369C35.5225 13.2262 35.6267 13.3531 35.6882 13.5016C35.7496 13.65 35.7657 13.8134 35.7344 13.971C35.703 14.1286 35.6257 14.2734 35.512 14.387C35.3984 14.5007 35.2536 14.578 35.096 14.6094C34.9384 14.6407 34.775 14.6247 34.6266 14.5632C34.4781 14.5017 34.3512 14.3975 34.2619 14.2639C34.1727 14.1303 34.125 13.9732 34.125 13.8125C34.125 13.597 34.2106 13.3904 34.363 13.238C34.5153 13.0856 34.722 13 34.9375 13Z" fill="white"/>
<path d="M22.75 13.8125C22.75 14.616 22.9883 15.4014 23.4347 16.0695C23.881 16.7376 24.5155 17.2583 25.2578 17.5658C26.0002 17.8732 26.817 17.9537 27.6051 17.7969C28.3931 17.6402 29.117 17.2533 29.6851 16.6851C30.2533 16.117 30.6402 15.3931 30.7969 14.6051C30.9537 13.817 30.8732 13.0002 30.5658 12.2578C30.2583 11.5155 29.7376 10.881 29.0695 10.4347C28.4014 9.98826 27.616 9.75 26.8125 9.75C25.7355 9.75129 24.7029 10.1797 23.9413 10.9413C23.1797 11.7029 22.7513 12.7355 22.75 13.8125ZM26.8125 11.375C27.2946 11.375 27.7659 11.518 28.1667 11.7858C28.5675 12.0536 28.88 12.4343 29.0645 12.8797C29.2489 13.3251 29.2972 13.8152 29.2032 14.288C29.1091 14.7609 28.877 15.1952 28.5361 15.5361C28.1952 15.877 27.7609 16.1091 27.288 16.2032C26.8152 16.2972 26.3251 16.2489 25.8797 16.0645C25.4343 15.88 25.0536 15.5675 24.7858 15.1667C24.518 14.7659 24.375 14.2946 24.375 13.8125C24.375 13.166 24.6318 12.546 25.0889 12.0889C25.546 11.6318 26.166 11.375 26.8125 11.375Z" fill="white"/>
</svg>
