<svg width="169" height="89" viewBox="0 0 169 89" fill="none" xmlns="http://www.w3.org/2000/svg">
<path d="M18.8828 85.18C17.3228 85.18 16.1168 84.772 15.2648 83.956C14.4128 83.128 13.9628 81.886 13.9148 80.23C13.9028 79.87 13.8968 79.36 13.8968 78.7C13.8968 78.04 13.9028 77.536 13.9148 77.188C13.9628 75.556 14.4248 74.32 15.3008 73.48C16.1888 72.64 17.3828 72.22 18.8828 72.22C20.3828 72.22 21.5708 72.64 22.4468 73.48C23.3228 74.32 23.7848 75.556 23.8328 77.188C23.8568 77.884 23.8688 78.388 23.8688 78.7C23.8688 79 23.8568 79.51 23.8328 80.23C23.7848 81.886 23.3348 83.128 22.4828 83.956C21.6428 84.772 20.4428 85.18 18.8828 85.18ZM18.8828 83.686C19.8428 83.686 20.6108 83.398 21.1868 82.822C21.7628 82.234 22.0748 81.34 22.1228 80.14C22.1468 79.42 22.1588 78.94 22.1588 78.7C22.1588 78.436 22.1468 77.956 22.1228 77.26C22.0748 76.06 21.7628 75.166 21.1868 74.578C20.6108 73.99 19.8428 73.696 18.8828 73.696C17.9228 73.696 17.1488 73.99 16.5608 74.578C15.9848 75.166 15.6788 76.06 15.6428 77.26C15.6308 77.608 15.6248 78.088 15.6248 78.7C15.6248 79.3 15.6308 79.78 15.6428 80.14C15.6788 81.34 15.9848 82.234 16.5608 82.822C17.1368 83.398 17.9108 83.686 18.8828 83.686ZM26.7273 88.42C26.6073 88.42 26.5053 88.384 26.4213 88.312C26.3493 88.24 26.3133 88.138 26.3133 88.006V76.054C26.3133 75.922 26.3493 75.82 26.4213 75.748C26.5053 75.676 26.6073 75.64 26.7273 75.64H27.4833C27.6153 75.64 27.7173 75.676 27.7893 75.748C27.8613 75.82 27.8973 75.922 27.8973 76.054V76.846C28.5933 75.922 29.5833 75.46 30.8673 75.46C32.1273 75.46 33.0693 75.862 33.6933 76.666C34.3293 77.458 34.6653 78.472 34.7013 79.708C34.7133 79.84 34.7193 80.044 34.7193 80.32C34.7193 80.596 34.7133 80.8 34.7013 80.932C34.6653 82.156 34.3293 83.17 33.6933 83.974C33.0693 84.778 32.1273 85.18 30.8673 85.18C29.5833 85.18 28.6113 84.724 27.9513 83.812V88.006C27.9513 88.126 27.9093 88.222 27.8253 88.294C27.7533 88.378 27.6573 88.42 27.5373 88.42H26.7273ZM30.5253 83.776C31.3893 83.776 32.0193 83.506 32.4153 82.966C32.8113 82.426 33.0273 81.718 33.0633 80.842C33.0753 80.722 33.0813 80.548 33.0813 80.32C33.0813 78.016 32.2293 76.864 30.5253 76.864C29.6853 76.864 29.0493 77.146 28.6173 77.71C28.1973 78.262 27.9753 78.916 27.9513 79.672C27.9393 79.804 27.9333 80.038 27.9333 80.374C27.9333 80.71 27.9393 80.944 27.9513 81.076C27.9753 81.808 28.2033 82.444 28.6353 82.984C29.0793 83.512 29.7093 83.776 30.5253 83.776ZM40.6908 85.18C39.4668 85.18 38.4888 84.802 37.7568 84.046C37.0248 83.278 36.6228 82.234 36.5508 80.914L36.5328 80.302L36.5508 79.708C36.6228 78.412 37.0248 77.38 37.7568 76.612C38.4888 75.844 39.4668 75.46 40.6908 75.46C42.0108 75.46 43.0308 75.88 43.7508 76.72C44.4828 77.56 44.8488 78.7 44.8488 80.14V80.464C44.8488 80.584 44.8068 80.686 44.7228 80.77C44.6508 80.842 44.5548 80.878 44.4348 80.878H38.1888V81.04C38.2248 81.82 38.4648 82.486 38.9088 83.038C39.3528 83.59 39.9408 83.866 40.6728 83.866C41.2368 83.866 41.6928 83.758 42.0408 83.542C42.4008 83.314 42.6708 83.08 42.8508 82.84C42.9588 82.696 43.0428 82.612 43.1028 82.588C43.1628 82.552 43.2648 82.534 43.4088 82.534H44.2008C44.3088 82.534 44.3988 82.564 44.4708 82.624C44.5548 82.684 44.5968 82.762 44.5968 82.858C44.5968 83.122 44.4348 83.44 44.1108 83.812C43.7868 84.184 43.3248 84.508 42.7248 84.784C42.1368 85.048 41.4588 85.18 40.6908 85.18ZM43.2108 79.654V79.6C43.2108 78.76 42.9828 78.076 42.5268 77.548C42.0708 77.02 41.4588 76.756 40.6908 76.756C39.9108 76.756 39.2988 77.02 38.8548 77.548C38.4108 78.076 38.1888 78.76 38.1888 79.6V79.654H43.2108ZM47.4515 85C47.3315 85 47.2295 84.964 47.1455 84.892C47.0735 84.808 47.0375 84.706 47.0375 84.586V76.054C47.0375 75.934 47.0735 75.838 47.1455 75.766C47.2295 75.682 47.3315 75.64 47.4515 75.64H48.2255C48.3575 75.64 48.4595 75.676 48.5315 75.748C48.6035 75.82 48.6395 75.922 48.6395 76.054V76.846C48.9995 76.402 49.4135 76.06 49.8815 75.82C50.3615 75.58 50.9555 75.46 51.6635 75.46C52.8155 75.46 53.7095 75.832 54.3455 76.576C54.9815 77.308 55.2995 78.28 55.2995 79.492V84.586C55.2995 84.706 55.2575 84.808 55.1735 84.892C55.1015 84.964 55.0055 85 54.8855 85H54.0575C53.9375 85 53.8355 84.964 53.7515 84.892C53.6795 84.808 53.6435 84.706 53.6435 84.586V79.6C53.6435 78.736 53.4335 78.064 53.0135 77.584C52.5935 77.104 51.9935 76.864 51.2135 76.864C50.4455 76.864 49.8335 77.11 49.3775 77.602C48.9215 78.082 48.6935 78.748 48.6935 79.6V84.586C48.6935 84.706 48.6515 84.808 48.5675 84.892C48.4955 84.964 48.3995 85 48.2795 85H47.4515ZM64.9225 85.18C64.3345 85.18 63.7885 85.06 63.2845 84.82C62.7925 84.58 62.3965 84.256 62.0965 83.848C61.8085 83.428 61.6645 82.966 61.6645 82.462C61.6645 81.67 61.9885 81.022 62.6365 80.518C63.2845 80.014 64.1665 79.678 65.2825 79.51L67.9825 79.132V78.61C67.9825 77.374 67.2685 76.756 65.8405 76.756C65.2885 76.756 64.8445 76.87 64.5085 77.098C64.1725 77.314 63.9265 77.572 63.7705 77.872C63.7225 77.992 63.6685 78.076 63.6085 78.124C63.5605 78.16 63.4885 78.178 63.3925 78.178H62.6905C62.5825 78.178 62.4865 78.142 62.4025 78.07C62.3305 77.986 62.2945 77.89 62.2945 77.782C62.2945 77.506 62.4205 77.188 62.6725 76.828C62.9365 76.456 63.3385 76.138 63.8785 75.874C64.4185 75.598 65.0785 75.46 65.8585 75.46C67.2025 75.46 68.1625 75.772 68.7385 76.396C69.3265 77.02 69.6205 77.8 69.6205 78.736V84.586C69.6205 84.706 69.5785 84.808 69.4945 84.892C69.4225 84.964 69.3265 85 69.2065 85H68.4145C68.2945 85 68.1985 84.964 68.1265 84.892C68.0545 84.808 68.0185 84.706 68.0185 84.586V83.794C67.7545 84.19 67.3705 84.52 66.8665 84.784C66.3625 85.048 65.7145 85.18 64.9225 85.18ZM65.2825 83.866C66.0745 83.866 66.7225 83.608 67.2265 83.092C67.7305 82.576 67.9825 81.826 67.9825 80.842V80.338L65.8765 80.644C65.0125 80.764 64.3585 80.968 63.9145 81.256C63.4705 81.544 63.2485 81.904 63.2485 82.336C63.2485 82.828 63.4465 83.206 63.8425 83.47C64.2505 83.734 64.7305 83.866 65.2825 83.866ZM72.641 85C72.521 85 72.419 84.964 72.335 84.892C72.263 84.808 72.227 84.706 72.227 84.586V76.054C72.227 75.934 72.263 75.838 72.335 75.766C72.419 75.682 72.521 75.64 72.641 75.64H73.415C73.547 75.64 73.649 75.676 73.721 75.748C73.793 75.82 73.829 75.922 73.829 76.054V76.846C74.189 76.402 74.603 76.06 75.071 75.82C75.551 75.58 76.145 75.46 76.853 75.46C78.005 75.46 78.899 75.832 79.535 76.576C80.171 77.308 80.489 78.28 80.489 79.492V84.586C80.489 84.706 80.447 84.808 80.363 84.892C80.291 84.964 80.195 85 80.075 85H79.247C79.127 85 79.025 84.964 78.941 84.892C78.869 84.808 78.833 84.706 78.833 84.586V79.6C78.833 78.736 78.623 78.064 78.203 77.584C77.783 77.104 77.183 76.864 76.403 76.864C75.635 76.864 75.023 77.11 74.567 77.602C74.111 78.082 73.883 78.748 73.883 79.6V84.586C73.883 84.706 73.841 84.808 73.757 84.892C73.685 84.964 73.589 85 73.469 85H72.641ZM86.3977 85C86.3017 85 86.2177 84.964 86.1457 84.892C86.0737 84.82 86.0377 84.736 86.0377 84.64L86.0737 84.442L90.5377 72.796C90.6337 72.532 90.8257 72.4 91.1137 72.4H92.2657C92.5537 72.4 92.7457 72.532 92.8417 72.796L97.3057 84.442L97.3417 84.64C97.3417 84.736 97.2997 84.82 97.2157 84.892C97.1437 84.964 97.0597 85 96.9637 85H96.1177C95.9977 85 95.8957 84.97 95.8117 84.91C95.7397 84.838 95.6917 84.766 95.6677 84.694L94.6597 82.102H88.7017L87.7117 84.694C87.6157 84.898 87.4657 85 87.2617 85H86.3977ZM89.2237 80.608H94.1557L91.6897 74.146L89.2237 80.608ZM102.69 85.18C101.406 85.18 100.404 84.82 99.6837 84.1C98.9637 83.368 98.5857 82.348 98.5497 81.04L98.5317 80.32L98.5497 79.6C98.5857 78.292 98.9637 77.278 99.6837 76.558C100.404 75.826 101.406 75.46 102.69 75.46C103.554 75.46 104.28 75.616 104.868 75.928C105.468 76.228 105.912 76.606 106.2 77.062C106.5 77.518 106.662 77.974 106.686 78.43C106.698 78.538 106.656 78.634 106.56 78.718C106.476 78.802 106.38 78.844 106.272 78.844H105.48C105.36 78.844 105.27 78.82 105.21 78.772C105.15 78.712 105.09 78.61 105.03 78.466C104.814 77.878 104.514 77.464 104.13 77.224C103.758 76.972 103.284 76.846 102.708 76.846C101.952 76.846 101.352 77.08 100.908 77.548C100.464 78.016 100.224 78.73 100.188 79.69L100.17 80.32L100.188 80.95C100.224 81.91 100.464 82.624 100.908 83.092C101.352 83.56 101.952 83.794 102.708 83.794C103.296 83.794 103.776 83.674 104.148 83.434C104.52 83.182 104.814 82.762 105.03 82.174C105.09 82.03 105.15 81.934 105.21 81.886C105.27 81.826 105.36 81.796 105.48 81.796H106.272C106.38 81.796 106.476 81.838 106.56 81.922C106.656 82.006 106.698 82.102 106.686 82.21C106.662 82.654 106.5 83.104 106.2 83.56C105.912 84.016 105.468 84.4 104.868 84.712C104.28 85.024 103.554 85.18 102.69 85.18ZM112.586 85.18C111.302 85.18 110.3 84.82 109.58 84.1C108.86 83.368 108.482 82.348 108.446 81.04L108.428 80.32L108.446 79.6C108.482 78.292 108.86 77.278 109.58 76.558C110.3 75.826 111.302 75.46 112.586 75.46C113.45 75.46 114.176 75.616 114.764 75.928C115.364 76.228 115.808 76.606 116.096 77.062C116.396 77.518 116.558 77.974 116.582 78.43C116.594 78.538 116.552 78.634 116.456 78.718C116.372 78.802 116.276 78.844 116.168 78.844H115.376C115.256 78.844 115.166 78.82 115.106 78.772C115.046 78.712 114.986 78.61 114.926 78.466C114.71 77.878 114.41 77.464 114.026 77.224C113.654 76.972 113.18 76.846 112.604 76.846C111.848 76.846 111.248 77.08 110.804 77.548C110.36 78.016 110.12 78.73 110.084 79.69L110.066 80.32L110.084 80.95C110.12 81.91 110.36 82.624 110.804 83.092C111.248 83.56 111.848 83.794 112.604 83.794C113.192 83.794 113.672 83.674 114.044 83.434C114.416 83.182 114.71 82.762 114.926 82.174C114.986 82.03 115.046 81.934 115.106 81.886C115.166 81.826 115.256 81.796 115.376 81.796H116.168C116.276 81.796 116.372 81.838 116.456 81.922C116.552 82.006 116.594 82.102 116.582 82.21C116.558 82.654 116.396 83.104 116.096 83.56C115.808 84.016 115.364 84.4 114.764 84.712C114.176 85.024 113.45 85.18 112.586 85.18ZM122.537 85.18C121.217 85.18 120.197 84.808 119.477 84.064C118.769 83.32 118.391 82.33 118.343 81.094L118.325 80.32L118.343 79.546C118.391 78.31 118.775 77.32 119.495 76.576C120.227 75.832 121.241 75.46 122.537 75.46C123.833 75.46 124.841 75.832 125.561 76.576C126.293 77.32 126.683 78.31 126.731 79.546C126.755 79.81 126.767 80.068 126.767 80.32C126.767 80.572 126.755 80.83 126.731 81.094C126.683 82.33 126.299 83.32 125.579 84.064C124.871 84.808 123.857 85.18 122.537 85.18ZM122.537 83.83C123.305 83.83 123.911 83.59 124.355 83.11C124.811 82.618 125.057 81.916 125.093 81.004C125.105 80.884 125.111 80.656 125.111 80.32C125.111 79.984 125.105 79.756 125.093 79.636C125.057 78.724 124.811 78.028 124.355 77.548C123.911 77.056 123.305 76.81 122.537 76.81C121.769 76.81 121.157 77.056 120.701 77.548C120.257 78.028 120.017 78.724 119.981 79.636L119.963 80.32L119.981 81.004C120.017 81.916 120.257 82.618 120.701 83.11C121.157 83.59 121.769 83.83 122.537 83.83ZM132.531 85.18C131.391 85.18 130.509 84.814 129.885 84.082C129.261 83.338 128.949 82.354 128.949 81.13V76.054C128.949 75.934 128.985 75.838 129.057 75.766C129.141 75.682 129.243 75.64 129.363 75.64H130.191C130.311 75.64 130.407 75.682 130.479 75.766C130.563 75.838 130.605 75.934 130.605 76.054V81.04C130.605 82.864 131.397 83.776 132.981 83.776C133.749 83.776 134.355 83.536 134.799 83.056C135.255 82.564 135.483 81.892 135.483 81.04V76.054C135.483 75.934 135.519 75.838 135.591 75.766C135.675 75.682 135.777 75.64 135.897 75.64H136.725C136.845 75.64 136.941 75.682 137.013 75.766C137.097 75.838 137.139 75.934 137.139 76.054V84.586C137.139 84.706 137.097 84.808 137.013 84.892C136.941 84.964 136.845 85 136.725 85H135.951C135.831 85 135.729 84.964 135.645 84.892C135.573 84.808 135.537 84.706 135.537 84.586V83.776C135.189 84.244 134.781 84.598 134.313 84.838C133.845 85.066 133.251 85.18 132.531 85.18ZM140.246 85C140.126 85 140.024 84.964 139.94 84.892C139.868 84.808 139.832 84.706 139.832 84.586V76.054C139.832 75.934 139.868 75.838 139.94 75.766C140.024 75.682 140.126 75.64 140.246 75.64H141.02C141.152 75.64 141.254 75.676 141.326 75.748C141.398 75.82 141.434 75.922 141.434 76.054V76.846C141.794 76.402 142.208 76.06 142.676 75.82C143.156 75.58 143.75 75.46 144.458 75.46C145.61 75.46 146.504 75.832 147.14 76.576C147.776 77.308 148.094 78.28 148.094 79.492V84.586C148.094 84.706 148.052 84.808 147.968 84.892C147.896 84.964 147.8 85 147.68 85H146.852C146.732 85 146.63 84.964 146.546 84.892C146.474 84.808 146.438 84.706 146.438 84.586V79.6C146.438 78.736 146.228 78.064 145.808 77.584C145.388 77.104 144.788 76.864 144.008 76.864C143.24 76.864 142.628 77.11 142.172 77.602C141.716 78.082 141.488 78.748 141.488 79.6V84.586C141.488 84.706 141.446 84.808 141.362 84.892C141.29 84.964 141.194 85 141.074 85H140.246ZM154.173 85C152.313 85 151.383 83.95 151.383 81.85V77.026H149.961C149.841 77.026 149.745 76.99 149.673 76.918C149.601 76.846 149.565 76.75 149.565 76.63V76.054C149.565 75.934 149.601 75.838 149.673 75.766C149.745 75.682 149.841 75.64 149.961 75.64H151.383V72.634C151.383 72.514 151.419 72.418 151.491 72.346C151.563 72.262 151.659 72.22 151.779 72.22H152.571C152.691 72.22 152.787 72.262 152.859 72.346C152.943 72.418 152.985 72.514 152.985 72.634V75.64H155.217C155.337 75.64 155.433 75.682 155.505 75.766C155.589 75.838 155.631 75.934 155.631 76.054V76.63C155.631 76.75 155.589 76.846 155.505 76.918C155.433 76.99 155.337 77.026 155.217 77.026H152.985V81.724C152.985 82.336 153.081 82.798 153.273 83.11C153.477 83.422 153.819 83.578 154.299 83.578H155.397C155.517 83.578 155.613 83.62 155.685 83.704C155.757 83.776 155.793 83.872 155.793 83.992V84.586C155.793 84.706 155.757 84.808 155.685 84.892C155.613 84.964 155.517 85 155.397 85H154.173Z" fill="white"/>
<path d="M93 35.7504C93.2155 35.7504 93.4221 35.6648 93.5745 35.5124C93.7269 35.36 93.8125 35.1534 93.8125 34.9379V31.6879C93.8116 31.5377 93.7687 31.3909 93.6888 31.2638C93.6088 31.1367 93.4949 31.0346 93.3599 30.9688L80.3599 24.4607C80.2472 24.4043 80.1228 24.375 79.9967 24.375C79.8707 24.375 79.7463 24.4043 79.6336 24.4607L66.6336 30.9688C66.4998 31.0355 66.3872 31.138 66.3085 31.265C66.2297 31.392 66.1878 31.5384 66.1875 31.6879V34.9379C66.1875 35.1534 66.2731 35.36 66.4255 35.5124C66.5778 35.6648 66.7845 35.7504 67 35.7504H67.8125V45.5004H67C66.7845 45.5004 66.5778 45.586 66.4255 45.7383C66.2731 45.8907 66.1875 46.0974 66.1875 46.3129V49.5629C66.1875 49.7784 66.2731 49.985 66.4255 50.1374C66.5778 50.2898 66.7845 50.3754 67 50.3754H93C93.2155 50.3754 93.4221 50.2898 93.5745 50.1374C93.7269 49.985 93.8125 49.7784 93.8125 49.5629V46.3129C93.8125 46.0974 93.7269 45.8907 93.5745 45.7383C93.4221 45.586 93.2155 45.5004 93 45.5004H92.1875V35.7504H93ZM80 26.0963L89.5582 30.8754H70.4417L80 26.0963ZM92.1875 48.7504H67.8125V47.1254H92.1875V48.7504ZM69.4375 45.5004V35.7504H71.0625V45.5004H69.4375ZM72.6875 45.5004V35.7504H74.3125V45.5004H72.6875ZM75.9375 45.5004V35.7504H77.5625V45.5004H75.9375ZM79.1875 45.5004V35.7504H80.8125V45.5004H79.1875ZM82.4375 45.5004V35.7504H84.0625V45.5004H82.4375ZM85.6875 45.5004V35.7504H87.3125V45.5004H85.6875ZM88.9375 45.5004V35.7504H90.5625V45.5004H88.9375ZM67.8125 34.1254V32.5004H92.1875V34.1254H67.8125Z" fill="white"/>
<path d="M59.9254 23.8004L55.8629 27.8629C55.7493 27.9765 55.6719 28.1213 55.6406 28.2789C55.6093 28.4365 55.6254 28.5998 55.6868 28.7482C55.7483 28.8967 55.8524 29.0236 55.986 29.1128C56.1196 29.2021 56.2767 29.2498 56.4373 29.2498H58.0623V42.2498C58.0623 42.4653 58.1479 42.672 58.3003 42.8243C58.4527 42.9767 58.6593 43.0623 58.8748 43.0623H65.3748C65.5903 43.0623 65.797 42.9767 65.9494 42.8243C66.1017 42.672 66.1873 42.4653 66.1873 42.2498V38.9998C66.1873 38.7843 66.1017 38.5777 65.9494 38.4253C65.797 38.2729 65.5903 38.1873 65.3748 38.1873H62.9373V29.2498H64.5623C64.723 29.2498 64.8801 29.2021 65.0136 29.1128C65.1472 29.0236 65.2513 28.8967 65.3128 28.7482C65.3743 28.5998 65.3904 28.4365 65.3591 28.2789C65.3277 28.1213 65.2504 27.9765 65.1368 27.8629L61.0743 23.8004C60.9219 23.6481 60.7153 23.5625 60.4998 23.5625C60.2844 23.5625 60.0778 23.6481 59.9254 23.8004ZM62.601 27.6248H62.1248C61.9093 27.6248 61.7027 27.7104 61.5503 27.8628C61.3979 28.0152 61.3123 28.2218 61.3123 28.4373V38.9998C61.3123 39.2153 61.3979 39.422 61.5503 39.5743C61.7027 39.7267 61.9093 39.8123 62.1248 39.8123H64.5623V41.4373H59.6873V28.4373C59.6873 28.2218 59.6017 28.0152 59.4494 27.8628C59.297 27.7104 59.0903 27.6248 58.8748 27.6248H58.3987L60.4998 25.5237L62.601 27.6248Z" fill="white"/>
<path d="M94.625 43.0623H101.125C101.34 43.0623 101.547 42.9767 101.7 42.8243C101.852 42.672 101.937 42.4653 101.937 42.2498V29.2498H103.562C103.723 29.2498 103.88 29.2021 104.014 29.1128C104.147 29.0236 104.252 28.8967 104.313 28.7482C104.374 28.5998 104.391 28.4365 104.359 28.2789C104.328 28.1213 104.251 27.9765 104.137 27.8629L100.074 23.8004C99.9221 23.6481 99.7154 23.5625 99.5 23.5625C99.2846 23.5625 99.0779 23.6481 98.9256 23.8004L94.8631 27.8629C94.7495 27.9765 94.6721 28.1213 94.6408 28.2789C94.6094 28.4365 94.6255 28.5998 94.687 28.7482C94.7485 28.8967 94.8526 29.0236 94.9862 29.1128C95.1198 29.2021 95.2768 29.2498 95.4375 29.2498H97.0625V38.1873H94.625C94.4095 38.1873 94.2028 38.2729 94.0505 38.4253C93.8981 38.5777 93.8125 38.7843 93.8125 38.9998V42.2498C93.8125 42.4653 93.8981 42.672 94.0505 42.8243C94.2028 42.9767 94.4095 43.0623 94.625 43.0623ZM95.4375 39.8123H97.875C98.0905 39.8123 98.2972 39.7267 98.4495 39.5743C98.6019 39.422 98.6875 39.2153 98.6875 38.9998V28.4373C98.6875 28.2218 98.6019 28.0152 98.4495 27.8628C98.2972 27.7104 98.0905 27.6248 97.875 27.6248H97.3989L99.5 25.5237L101.601 27.6248H101.125C100.91 27.6248 100.703 27.7104 100.55 27.8628C100.398 28.0152 100.312 28.2218 100.312 28.4373V41.4373H95.4375V39.8123Z" fill="white"/>
<path d="M60.5 1.625V21.125H63.75V22.75H97.875V4.875H96.25V1.625H60.5ZM63.75 19.5H62.125V3.25H94.625V4.875H63.75V19.5ZM96.25 21.125H65.375V6.5H96.25V21.125Z" fill="white"/>
<path d="M69.4375 18.6875V19.5H92.1875V18.6875C92.1875 18.2565 92.3587 17.8432 92.6634 17.5385C92.9682 17.2337 93.3815 17.0625 93.8125 17.0625H94.625V10.5625H93.8125C93.3815 10.5625 92.9682 10.3913 92.6634 10.0865C92.3587 9.7818 92.1875 9.36848 92.1875 8.9375V8.125H69.4375V8.9375C69.4375 9.36848 69.2663 9.7818 68.9615 10.0865C68.6568 10.3913 68.2435 10.5625 67.8125 10.5625H67V17.0625H67.8125C68.2435 17.0625 68.6568 17.2337 68.9615 17.5385C69.2663 17.8432 69.4375 18.2565 69.4375 18.6875ZM68.625 12.0843C69.1867 11.9381 69.6992 11.6447 70.1097 11.2344C70.5202 10.8241 70.8137 10.3116 70.9601 9.75H90.6649C90.8112 10.3116 91.1048 10.8241 91.5153 11.2344C91.9258 11.6447 92.4383 11.9381 93 12.0843V15.5407C92.4383 15.6869 91.9258 15.9803 91.5153 16.3906C91.1048 16.8009 90.8112 17.3134 90.6649 17.875H70.9601C70.8137 17.3134 70.5202 16.8009 70.1097 16.3906C69.6992 15.9803 69.1867 15.6869 68.625 15.5407V12.0843Z" fill="white"/>
<path d="M72.6875 16.25C73.1696 16.25 73.6409 16.107 74.0417 15.8392C74.4425 15.5714 74.755 15.1907 74.9395 14.7453C75.1239 14.2999 75.1722 13.8098 75.0782 13.337C74.9841 12.8641 74.752 12.4298 74.4111 12.0889C74.0702 11.748 73.6359 11.5159 73.163 11.4218C72.6902 11.3278 72.2001 11.3761 71.7547 11.5605C71.3093 11.745 70.9286 12.0575 70.6608 12.4583C70.393 12.8591 70.25 13.3304 70.25 13.8125C70.25 14.459 70.5068 15.079 70.9639 15.5361C71.421 15.9932 72.041 16.25 72.6875 16.25ZM72.6875 13C72.8482 13 73.0053 13.0477 73.1389 13.1369C73.2725 13.2262 73.3767 13.3531 73.4382 13.5016C73.4996 13.65 73.5157 13.8134 73.4844 13.971C73.453 14.1286 73.3757 14.2734 73.262 14.387C73.1484 14.5007 73.0036 14.578 72.846 14.6094C72.6884 14.6407 72.525 14.6247 72.3766 14.5632C72.2281 14.5017 72.1012 14.3975 72.0119 14.2639C71.9227 14.1303 71.875 13.9732 71.875 13.8125C71.875 13.597 71.9606 13.3904 72.113 13.238C72.2653 13.0856 72.472 13 72.6875 13Z" fill="white"/>
<path d="M88.9375 16.25C89.4196 16.25 89.8909 16.107 90.2917 15.8392C90.6925 15.5714 91.005 15.1907 91.1895 14.7453C91.3739 14.2999 91.4222 13.8098 91.3282 13.337C91.2341 12.8641 91.002 12.4298 90.6611 12.0889C90.3202 11.748 89.8859 11.5159 89.413 11.4218C88.9402 11.3278 88.4501 11.3761 88.0047 11.5605C87.5593 11.745 87.1786 12.0575 86.9108 12.4583C86.643 12.8591 86.5 13.3304 86.5 13.8125C86.5 14.459 86.7568 15.079 87.2139 15.5361C87.671 15.9932 88.291 16.25 88.9375 16.25ZM88.9375 13C89.0982 13 89.2553 13.0477 89.3889 13.1369C89.5225 13.2262 89.6267 13.3531 89.6882 13.5016C89.7496 13.65 89.7657 13.8134 89.7344 13.971C89.703 14.1286 89.6257 14.2734 89.512 14.387C89.3984 14.5007 89.2536 14.578 89.096 14.6094C88.9384 14.6407 88.775 14.6247 88.6266 14.5632C88.4781 14.5017 88.3512 14.3975 88.2619 14.2639C88.1727 14.1303 88.125 13.9732 88.125 13.8125C88.125 13.597 88.2106 13.3904 88.363 13.238C88.5153 13.0856 88.722 13 88.9375 13Z" fill="white"/>
<path d="M76.75 13.8125C76.75 14.616 76.9883 15.4014 77.4347 16.0695C77.881 16.7376 78.5155 17.2583 79.2578 17.5658C80.0002 17.8732 80.817 17.9537 81.6051 17.7969C82.3931 17.6402 83.117 17.2533 83.6851 16.6851C84.2533 16.117 84.6402 15.3931 84.7969 14.6051C84.9537 13.817 84.8732 13.0002 84.5658 12.2578C84.2583 11.5155 83.7376 10.881 83.0695 10.4347C82.4014 9.98826 81.616 9.75 80.8125 9.75C79.7355 9.75129 78.7029 10.1797 77.9413 10.9413C77.1797 11.7029 76.7513 12.7355 76.75 13.8125ZM80.8125 11.375C81.2946 11.375 81.7659 11.518 82.1667 11.7858C82.5675 12.0536 82.88 12.4343 83.0645 12.8797C83.2489 13.3251 83.2972 13.8152 83.2032 14.288C83.1091 14.7609 82.877 15.1952 82.5361 15.5361C82.1952 15.877 81.7609 16.1091 81.288 16.2032C80.8152 16.2972 80.3251 16.2489 79.8797 16.0645C79.4343 15.88 79.0536 15.5675 78.7858 15.1667C78.518 14.7659 78.375 14.2946 78.375 13.8125C78.375 13.166 78.6318 12.546 79.0889 12.0889C79.546 11.6318 80.166 11.375 80.8125 11.375Z" fill="white"/>
</svg>
