<svg width="52" height="52" viewBox="0 0 52 52" fill="none" xmlns="http://www.w3.org/2000/svg">
<path d="M47.9804 0.00341797H4.01953C1.80324 0.00341797 0 1.80666 0 4.02295V30.0738C0 32.2902 1.80324 34.0933 4.01953 34.0933H20.3522V40.4354C20.3522 40.6554 20.4648 40.8408 20.5599 41.0309C20.6321 41.1754 20.7043 41.3199 20.7765 41.4642C22.1439 44.1992 24.2051 46.5738 26.9028 48.522C29.3858 50.3152 31.707 51.2332 32.8697 51.6207C33.0863 51.6928 33.3032 51.7638 33.5193 51.8374C33.7208 51.9059 33.9241 51.9957 34.1407 51.9972C34.3513 51.9986 34.5487 51.9115 34.7441 51.8438C34.9659 51.7668 35.1894 51.695 35.4121 51.6207C36.5747 51.2332 38.8959 50.3153 41.3789 48.522C44.0766 46.5738 46.1379 44.1993 47.5054 41.4641C47.5776 41.3197 47.6498 41.1752 47.722 41.0308C47.8171 40.8406 47.9297 40.6552 47.9297 40.4354V34.0933H47.9806C50.197 34.0933 52.0001 32.2901 52.0001 30.0738V4.02295C51.9999 1.80666 50.1967 0.00341797 47.9804 0.00341797ZM46.403 40.2553L46.1399 40.7817C44.8835 43.2941 42.981 45.4821 40.485 47.2847C38.1668 48.959 36.0091 49.8129 34.9291 50.1729C34.7916 50.2188 34.654 50.264 34.5164 50.3097C34.4438 50.3337 34.37 50.3559 34.2992 50.3844C34.242 50.4075 34.1886 50.4394 34.1246 50.4342C34.0642 50.4294 34.0107 50.3954 33.9553 50.3736C33.8923 50.3487 33.8261 50.3305 33.7617 50.3093C33.6251 50.2644 33.489 50.2183 33.3525 50.1728C32.2725 49.8128 30.1148 48.959 27.7965 47.2846C25.3005 45.482 23.3979 43.294 22.1417 40.7816L21.8786 40.2553V23.9963L25.1601 25.0902C25.8984 25.3363 26.6752 25.4611 27.469 25.4611C30.3352 25.461 32.6213 23.8499 32.6514 23.8279L34.1459 22.7071L35.635 23.8313C35.6393 23.8345 35.6438 23.8378 35.6483 23.841C35.6707 23.8572 37.9273 25.4611 40.8125 25.4611C41.606 25.4611 42.383 25.3363 43.1215 25.0902L46.4029 23.9964V40.2553H46.403ZM50.4735 13.0289H42.3326C41.911 13.0289 41.5694 13.3705 41.5694 13.7921C41.5694 14.2137 41.911 14.5554 42.3326 14.5554H50.4735V30.0739C50.4735 31.4485 49.3552 32.5669 47.9804 32.5669H47.9295V22.9375C47.9295 22.4256 47.4114 22.0513 46.9249 22.2135L42.639 23.6421C42.0563 23.8362 41.4418 23.9347 40.8126 23.9347C38.5213 23.9347 36.6334 22.6659 36.5447 22.6054L34.6074 21.1429C34.336 20.9381 33.9618 20.9374 33.6895 21.1415L31.7478 22.5979C31.6435 22.6694 29.7605 23.9347 27.4694 23.9348C26.8399 23.9348 26.2254 23.8364 25.6431 23.6422L21.357 22.2136C20.8706 22.0517 20.3525 22.4256 20.3525 22.9376V32.567H4.01953C2.64489 32.567 1.52638 31.4487 1.52638 30.0739V14.5554H38.6183C39.0398 14.5554 39.3815 14.2137 39.3815 13.7921C39.3815 13.3705 39.0398 13.0289 38.6183 13.0289H1.52638V8.04268H50.4734V13.0289H50.4735ZM50.4735 6.5161H1.52638V4.02295C1.52638 2.6482 2.64489 1.5298 4.01953 1.5298H47.9803C49.355 1.5298 50.4734 2.6482 50.4734 4.02295V6.5161H50.4735Z" fill="black"/>
</svg>
